<svg width="189" height="142" viewBox="0 0 189 142" fill="none" xmlns="http://www.w3.org/2000/svg">
<rect x="41.5" y="1" width="38" height="5.2" rx="1" stroke="#CECDD2" stroke-opacity="0.666667" stroke-width="2"/>
<rect x="41.5" y="10.2" width="38" height="24" rx="1" stroke="#CECDD2" stroke-opacity="0.666667" stroke-width="2"/>
<rect x="109.5" y="1" width="38" height="5.2" rx="1" stroke="#CECDD2" stroke-opacity="0.666667" stroke-width="2"/>
<rect x="109.5" y="10.2" width="38" height="24" rx="1" stroke="#CECDD2" stroke-opacity="0.666667" stroke-width="2"/>
<path d="M1 47C1 44.2386 3.23858 42 6 42H183C185.761 42 188 44.2386 188 47V95C188 97.7614 185.761 100 183 100H6C3.23858 100 1 97.7614 1 95V47Z" stroke="#CECDD2" stroke-opacity="0.666667" stroke-width="2"/>
<rect x="79.5" y="141" width="38" height="5.2" rx="1" transform="rotate(180 79.5 141)" stroke="#CECDD2" stroke-opacity="0.666667" stroke-width="2"/>
<rect x="79.5" y="131.8" width="38" height="24" rx="1" transform="rotate(180 79.5 131.8)" stroke="#CECDD2" stroke-opacity="0.666667" stroke-width="2"/>
<rect x="147.5" y="141" width="38" height="5.2" rx="1" transform="rotate(180 147.5 141)" stroke="#CECDD2" stroke-opacity="0.666667" stroke-width="2"/>
<rect x="147.5" y="131.8" width="38" height="24" rx="1" transform="rotate(180 147.5 131.8)" stroke="#CECDD2" stroke-opacity="0.666667" stroke-width="2"/>
</svg>
