<svg width="189" height="142" viewBox="0 0 189 142" fill="none" xmlns="http://www.w3.org/2000/svg">
<rect x="24.5" width="40" height="8" rx="2" fill="#CECDD2" fill-opacity="0.666667"/>
<rect x="24.5" y="10" width="40" height="26" rx="2" fill="#CECDD2" fill-opacity="0.666667"/>
<rect x="74.5" width="40" height="8" rx="2" fill="#CECDD2" fill-opacity="0.666667"/>
<rect x="74.5" y="10" width="40" height="26" rx="2" fill="#CECDD2" fill-opacity="0.666667"/>
<rect x="124.5" width="40" height="8" rx="2" fill="#CECDD2" fill-opacity="0.666667"/>
<rect x="124.5" y="10" width="40" height="26" rx="2" fill="#CECDD2" fill-opacity="0.666667"/>
<path d="M0 47C0 43.6863 2.68629 41 6 41H183C186.314 41 189 43.6863 189 47V95C189 98.3137 186.314 101 183 101H6C2.68629 101 0 98.3137 0 95V47Z" fill="#D9D9D9"/>
<rect x="164.5" y="142" width="40" height="8" rx="2" transform="rotate(180 164.5 142)" fill="#CECDD2" fill-opacity="0.666667"/>
<rect x="164.5" y="132" width="40" height="26" rx="2" transform="rotate(180 164.5 132)" fill="#CECDD2" fill-opacity="0.666667"/>
<rect x="114.5" y="142" width="40" height="8" rx="2" transform="rotate(180 114.5 142)" fill="#CECDD2" fill-opacity="0.666667"/>
<rect x="114.5" y="132" width="40" height="26" rx="2" transform="rotate(180 114.5 132)" fill="#CECDD2" fill-opacity="0.666667"/>
<rect x="64.5" y="142" width="40" height="8" rx="2" transform="rotate(180 64.5 142)" fill="#CECDD2" fill-opacity="0.666667"/>
<rect x="64.5" y="132" width="40" height="26" rx="2" transform="rotate(180 64.5 132)" fill="#CECDD2" fill-opacity="0.666667"/>
</svg>
